# File created by Blade
# Date/Time:  Tue Jan 27 19:54:32 2015
#---------------------------------------------------------
:version 1.10
:name HOM
:units
  mass 1.0
  length 1.000000
  angle deg
:documentation
     Acclaim Skeleton File
:root
   axis xyz
   order TX TY TZ RX RY RZ
   position 0.000000 0.000000 0.000000
   orientation 0 0 0
:bonedata
   begin
      id 1
      name Spine_dum
      direction 0.000000 1.000000 0.000000
      length 6.116652
      axis 0.0 0.0 0.0 xyz
   end
   begin
      id 2
      name LeftUpLeg_dum
      direction 1.000000 0.000000 0.000000
      length 4.711765
      axis 0.0 0.0 0.0 xyz
   end
   begin
      id 3
      name RightUpLeg_dum
      direction -1.000000 0.000000 0.000000
      length 4.711765
      axis 0.0 0.0 0.0 xyz
   end
   begin
      id 4
      name Spine
      direction 0.000000 1.000000 0.000000
      length 0.000000
      axis 0.0 0.0 0.0 xyz
      dof rx ry rz
   end
   begin
      id 5
      name Spine_dum1
      direction 0.000000 1.000000 0.000000
      length 15.225563
      axis 0.0 0.0 0.0 xyz
   end
   begin
      id 6
      name Spine_dum2
      direction 0.000000 1.000000 0.000000
      length 8.977654
      axis 0.0 0.0 0.0 xyz
   end
   begin
      id 7
      name Spine_dum3
      direction 0.000000 1.000000 0.000000
      length 8.977654
      axis 0.0 0.0 0.0 xyz
   end
   begin
      id 8
      name Head
      direction 0.000000 1.000000 0.000000
      length 4.527550
      axis 0.0 0.0 0.0 xyz
      dof rx ry rz
   end
   begin
      id 9
      name LeftShoulder
      direction 1.000000 0.000000 0.000000
      length 7.110130
      axis 0.0 0.0 -90.0 xyz
      dof rx ry rz
   end
   begin
      id 10
      name LeftArm
      direction 1.000000 0.000000 0.000000
      length 10.398341
      axis 0.0 0.0 -90.0 xyz
      dof rx ry rz
   end
   begin
      id 11
      name LeftForeArm
      direction 1.000000 0.000000 0.000000
      length 8.888997
      axis 0.0 0.0 -90.0 xyz
      dof ry rz rx
   end
   begin
      id 12
      name LeftHand
      direction 0.000000 0.000000 0.000000
      length 0.000000
      axis 0.0 0.0 -90.0 xyz
      dof rx ry rz
   end
   begin
      id 13
      name LeftHand_dum1
      direction 0.000000 0.000000 0.000000
      length 0.000000
      axis 0.0 0.0 -90.0 xyz
   end
   begin
      id 14
      name LeftHand_dum2
      direction 1.000000 0.000000 0.000000
      length 3.937000
      axis 0.0 0.0 -90.0 xyz
   end
   begin
      id 15
      name LeftHandThumb1
      direction 0.000000 0.000000 1.000000
      length 3.937000
      axis 0.0 0.0 -90.0 xyz
      dof rx rz ry
   end
   begin
      id 16
      name RightShoulder
      direction -1.000000 0.000000 0.000000
      length 7.110130
      axis 0.0 0.0 90.0 xyz
      dof rx ry rz
   end
   begin
      id 17
      name RightArm
      direction -1.000000 0.000000 0.000000
      length 10.398341
      axis 0.0 0.0 90.0 xyz
      dof rx ry rz
   end
   begin
      id 18
      name RightForeArm
      direction -1.000000 0.000000 0.000000
      length 8.888997
      axis 0.0 0.0 90.0 xyz
      dof ry rz rx
   end
   begin
      id 19
      name RightHand
      direction 0.000000 0.000000 0.000000
      length 0.000000
      axis 0.0 0.0 90.0 xyz
      dof rx ry rz
   end
   begin
      id 20
      name RightHand_dum1
      direction 0.000000 0.000000 0.000000
      length 0.000000
      axis 0.0 0.0 90.0 xyz
   end
   begin
      id 21
      name RightHand_dum2
      direction -1.000000 0.000000 0.000000
      length 3.937000
      axis 0.0 0.0 90.0 xyz
   end
   begin
      id 22
      name RightHandThumb1
      direction 0.000000 0.000000 1.000000
      length 3.937000
      axis 0.0 0.0 90.0 xyz
      dof rx rz ry
   end
   begin
      id 23
      name LeftUpLeg
      direction 0.000000 -1.000000 0.000000
      length 15.510451
      axis 0.0 0.0 0.0 xyz
      dof rx ry rz
   end
   begin
      id 24
      name LeftLeg
      direction 0.000000 -1.000000 0.000000
      length 14.858061
      axis 0.0 0.0 0.0 xyz
      dof rx ry rz
   end
   begin
      id 25
      name LeftFoot
      direction 0.000000 -0.258819 0.965926
      length 5.128852
      axis 15.0 0.0 0.0 xyz
      dof rx ry rz
   end
   begin
      id 26
      name LeftToeBase
      direction 0.000000 0.000000 1.000000
      length 2.952750
      axis 0.0 0.0 0.0 xyz
      dof rx ry rz
   end
   begin
      id 27
      name RightUpLeg
      direction 0.000000 -1.000000 0.000000
      length 15.510451
      axis 0.0 0.0 0.0 xyz
      dof rx ry rz
   end
   begin
      id 28
      name RightLeg
      direction 0.000000 -1.000000 0.000000
      length 14.858061
      axis 0.0 0.0 0.0 xyz
      dof rx ry rz
   end
   begin
      id 29
      name RightFoot
      direction 0.000000 -0.258819 0.965926
      length 5.128852
      axis 15.0 0.0 0.0 xyz
      dof rx ry rz
   end
   begin
      id 30
      name RightToeBase
      direction 0.000000 0.000000 1.000000
      length 2.952750
      axis 0.0 0.0 0.0 xyz
      dof rx ry rz
   end
:hierarchy
   begin
      root Spine_dum LeftUpLeg_dum RightUpLeg_dum
      Spine_dum Spine
      LeftUpLeg_dum LeftUpLeg
      RightUpLeg_dum RightUpLeg
      Spine Spine_dum1 Spine_dum2 Spine_dum3
      Spine_dum1 Head
      Spine_dum2 LeftShoulder
      Spine_dum3 RightShoulder
      LeftShoulder LeftArm
      LeftArm LeftForeArm
      LeftForeArm LeftHand
      LeftHand LeftHand_dum1 LeftHand_dum2
      LeftHand_dum1 LeftHandThumb1
      RightShoulder RightArm
      RightArm RightForeArm
      RightForeArm RightHand
      RightHand RightHand_dum1 RightHand_dum2
      RightHand_dum1 RightHandThumb1
      LeftUpLeg LeftLeg
      LeftLeg LeftFoot
      LeftFoot LeftToeBase
      RightUpLeg RightLeg
      RightLeg RightFoot
      RightFoot RightToeBase
   end

# File created by Blade
# Date/Time:  Tue Jan 27 19:54:25 2015
# Frame Rate: 120.000 fps
#------------------------------------------------------
:FULLY-SPECIFIED
:DEGREES
132
root 4.943801 32.529535 -0.960717 -5.868787 11.610394 -6.106089
Spine 9.494113 8.274905 5.440646
Head -8.494502 -12.591994 5.254755
LeftShoulder -13.119186 -0.492076 29.433496
LeftArm -6.995466 11.418902 -89.607268
LeftForeArm -9.033367 -0.000000 97.169161
LeftHand 17.029383 -0.000000 42.454775
LeftHandThumb1 -26.253704 0.000000 33.147579
RightShoulder -16.578751 -12.922196 -24.265702
RightArm 16.983543 -27.910419 90.756644
RightForeArm -24.163650 -0.000000 59.741632
RightHand 17.306228 -0.000000 2.353909
RightHandThumb1 -24.326973 -0.000000 -32.862282
LeftUpLeg -0.867065 -5.089788 -0.381682
LeftLeg 16.522452 -0.000000 -0.000000
LeftFoot -22.532265 16.990405 -20.509990
LeftToeBase 16.045684 -0.000000 -0.000000
RightUpLeg -55.985091 8.051714 14.658747
RightLeg 104.160372 -0.000000 -0.000000
RightFoot -1.625810 -19.822856 20.875701
RightToeBase 11.124164 -0.000000 -0.000000
133
root 4.946424 32.548078 -0.944744 -6.057357 11.787873 -6.238160
Spine 9.681996 8.035786 5.582058
Head -8.342937 -12.527164 5.192752
LeftShoulder -13.138169 -0.619628 29.365017
LeftArm -7.050114 11.481512 -89.627699
LeftForeArm -8.916883 -0.000000 96.561645
LeftHand 17.401545 -0.000000 43.077953
LeftHandThumb1 -26.253704 0.000000 33.147579
RightShoulder -16.636607 -12.951389 -24.201351
RightArm 16.859616 -27.882445 90.788215
RightForeArm -24.261396 -0.000000 59.731012
RightHand 17.259319 -0.000000 2.088335
RightHandThumb1 -24.326973 -0.000000 -32.862282
LeftUpLeg -0.568194 -5.134962 -0.263300
LeftLeg 16.242335 -0.000000 -0.000000
LeftFoot -22.364755 16.879031 -20.433881
LeftToeBase 16.216879 -0.000000 -0.000000
RightUpLeg -56.999885 8.363942 15.193888
RightLeg 105.608055 -0.000000 -0.000000
RightFoot -1.431866 -19.461248 20.550126
RightToeBase 11.980381 -0.000000 -0.000000
134
root 4.952770 32.565744 -0.930154 -6.234592 11.987737 -6.338914
Spine 9.860397 7.775820 5.688306
Head -8.180258 -12.420524 5.102589
LeftShoulder -13.138641 -0.663518 29.260328
LeftArm -7.020616 11.476917 -89.631920
LeftForeArm -8.931334 -0.000000 96.006028
LeftHand 17.605352 -0.000000 43.855561
LeftHandThumb1 -26.253704 0.000000 33.147579
RightShoulder -16.689674 -13.003259 -24.147143
RightArm 16.745462 -27.811089 90.845458
RightForeArm -24.492108 -0.000000 59.677714
RightHand 17.153492 -0.000000 1.374535
RightHandThumb1 -24.326973 -0.000000 -32.862282
LeftUpLeg -0.267478 -5.172459 -0.183681
LeftLeg 15.936093 -0.000000 -0.000000
LeftFoot -22.165820 16.847406 -20.310948
LeftToeBase 16.072944 -0.000000 -0.000000
RightUpLeg -58.018345 8.682614 15.709655
RightLeg 107.024024 -0.000000 -0.000000
RightFoot -1.280557 -19.015482 20.423878
RightToeBase 11.078628 -0.000000 -0.000000
135
root 4.959296 32.582072 -0.913059 -6.418364 12.214849 -6.463641
Spine 10.021908 7.482021 5.811485
Head -7.985675 -12.298551 5.020177
LeftShoulder -13.155973 -0.707264 29.158904
LeftArm -6.986264 11.487947 -89.661707
LeftForeArm -8.825665 0.000000 95.455737
LeftHand 17.729443 -0.000000 44.691910
LeftHandThumb1 -26.253704 0.000000 33.147579
RightShoulder -16.737381 -13.073368 -24.082786
RightArm 16.650168 -27.760684 90.836550
RightForeArm -24.223447 0.000000 59.663256
RightHand 17.522203 0.000000 2.440480
RightHandThumb1 -24.326973 -0.000000 -32.862282
LeftUpLeg 0.019264 -5.178945 -0.067599
LeftLeg 15.671984 -0.000000 -0.000000
LeftFoot -22.006644 16.664206 -20.243485
LeftToeBase 16.079068 -0.000000 -0.000000
RightUpLeg -59.000714 8.965640 16.255254
RightLeg 108.383852 -0.000000 -0.000000
RightFoot -1.267778 -18.740475 20.719481
RightToeBase 12.647764 -0.000000 -0.000000
